<!-- Generated by IcoMoon.io -->
<svg version="1.1" xmlns="http://www.w3.org/2000/svg" width="32" height="32" viewBox="0 0 32 32">
<title>door-(1)</title>
<path d="M12.018 2.944c-2.503 0.512-4.636 0.996-4.722 1.067-0.27 0.213-0.27 23.765 0 23.979 0.185 0.156 9.33 2.020 9.913 2.020 0.213 0 0.441-0.071 0.54-0.171 0.242-0.242 0.242-27.435 0-27.676-0.284-0.284-0.967-0.185-5.732 0.782zM15.132 16.156c0.327 0.327 0.327 3.2 0 3.527-0.284 0.284-0.54 0.284-0.825 0-0.327-0.327-0.327-3.2 0-3.527 0.114-0.128 0.313-0.228 0.412-0.228s0.299 0.1 0.412 0.228z"></path>
<path d="M18.631 4.48v0.64h5.12v21.76h-5.12v1.28h2.958c2.105 0 3.001-0.043 3.129-0.171 0.242-0.242 0.242-23.737 0-23.979-0.128-0.128-1.024-0.171-3.129-0.171h-2.958v0.64z"></path>
<path d="M1.735 9.785c-0.796 2.062-0.953 3.086-0.953 6.215s0.156 4.153 0.953 6.215l0.412 1.109 0.583-0.299c0.427-0.213 0.54-0.341 0.455-0.526-0.896-2.119-1.237-3.897-1.237-6.5s0.341-4.38 1.237-6.5c0.085-0.185-0.028-0.313-0.455-0.526l-0.583-0.299-0.412 1.109z"></path>
<path d="M29.255 8.974c-0.412 0.228-0.526 0.341-0.441 0.526 0.057 0.128 0.242 0.64 0.427 1.124 1.152 3.072 1.081 8.121-0.156 11.179-0.199 0.469-0.356 0.882-0.356 0.91 0 0.014 0.256 0.171 0.555 0.327l0.569 0.284 0.299-0.825c0.171-0.441 0.484-1.422 0.683-2.162 0.341-1.266 0.37-1.55 0.37-4.409 0-2.83-0.028-3.157-0.37-4.409-0.199-0.74-0.512-1.678-0.697-2.091l-0.341-0.74-0.54 0.284z"></path>
<path d="M4.252 10.069c-0.085 0.213-0.327 0.996-0.526 1.735-0.341 1.237-0.37 1.579-0.37 4.196s0.028 2.958 0.37 4.196c0.199 0.74 0.441 1.522 0.526 1.735l0.142 0.384 0.583-0.228c0.427-0.171 0.555-0.299 0.498-0.455-0.384-0.967-0.796-2.83-0.924-4.096-0.228-2.276 0.128-5.134 0.924-7.168 0.057-0.156-0.071-0.284-0.498-0.455l-0.583-0.228-0.142 0.384z"></path>
<path d="M26.98 9.927c-0.398 0.156-0.512 0.27-0.455 0.441 0.796 2.034 1.166 4.892 0.924 7.168-0.128 1.266-0.54 3.129-0.924 4.096-0.057 0.156 0.071 0.284 0.498 0.455l0.583 0.228 0.142-0.384c0.085-0.213 0.313-0.996 0.512-1.735 0.441-1.678 0.597-4.878 0.341-6.684-0.185-1.195-0.796-3.556-0.981-3.712-0.057-0.043-0.341 0.014-0.64 0.128z"></path>
</svg>
