<!-- Generated by IcoMoon.io -->
<svg version="1.1" xmlns="http://www.w3.org/2000/svg" width="32" height="32" viewBox="0 0 32 32">
<title>raspberry-pi</title>
<path d="M9.784 0.118l-0.208 0.118-0.106-0.046c-0.122-0.054-0.294-0.1-0.444-0.118-0.224-0.028-0.538 0.068-0.698 0.214l-0.080 0.070-0.164-0.020c-0.292-0.038-0.548 0.030-0.74 0.196-0.084 0.070-0.088 0.072-0.22 0.064-0.174-0.012-0.518 0.016-0.672 0.056-0.216 0.056-0.37 0.142-0.516 0.29l-0.134 0.136h-0.208c-0.372 0-0.63 0.094-0.814 0.296-0.212 0.232-0.252 0.578-0.11 0.934l0.048 0.118-0.068 0.112c-0.096 0.154-0.132 0.27-0.132 0.416 0 0.198 0.076 0.41 0.24 0.672l0.084 0.13-0.050 0.074c-0.15 0.222-0.050 0.572 0.248 0.87l0.158 0.158-0.022 0.162c-0.048 0.326 0.052 0.602 0.316 0.866 0.086 0.084 0.162 0.154 0.172 0.154 0.008 0 0.016 0.056 0.016 0.126 0 0.28 0.108 0.466 0.48 0.832 0.226 0.222 0.26 0.264 0.29 0.362 0.13 0.412 0.4 0.662 0.898 0.836 0.152 0.052 0.158 0.058 0.182 0.134 0.106 0.356 0.348 0.558 0.836 0.7l0.216 0.064-0.216 0.126c-0.814 0.474-1.412 1.024-1.806 1.658-0.454 0.732-0.7 1.632-0.732 2.692l-0.012 0.36-0.122 0.186c-0.084 0.128-0.15 0.206-0.212 0.25-0.374 0.254-0.812 0.712-1.12 1.174-0.758 1.13-1.046 2.504-0.79 3.776 0.14 0.706 0.514 1.48 1.004 2.088l0.142 0.174 0.042 0.236c0.064 0.362 0.184 0.802 0.38 1.396 0.114 0.342 0.194 0.626 0.22 0.77 0.102 0.558 0.246 0.998 0.492 1.484 0.362 0.722 0.872 1.344 1.518 1.856 0.352 0.278 0.812 0.548 1.11 0.65 0.102 0.036 0.188 0.090 0.408 0.268 0.73 0.582 1.604 1.086 2.522 1.454l0.34 0.134 0.19 0.176c0.648 0.602 1.322 1.008 2.080 1.258 0.51 0.17 0.896 0.236 1.47 0.252 1.098 0.034 2.114-0.258 3.040-0.876 0.302-0.2 0.452-0.32 0.768-0.602l0.226-0.204 0.324-0.132c1.028-0.42 1.784-0.858 2.58-1.494 0.19-0.152 0.266-0.202 0.376-0.238 0.274-0.092 0.642-0.302 1.016-0.582 0.266-0.2 0.828-0.75 1.024-1.004 0.558-0.724 0.906-1.51 1.066-2.4 0.040-0.22 0.094-0.402 0.298-0.98 0.136-0.39 0.296-0.868 0.354-1.060l0.106-0.35 0.158-0.18c0.682-0.776 1.080-1.602 1.226-2.54 0.046-0.298 0.046-0.918 0-1.22-0.136-0.884-0.48-1.682-1.034-2.38-0.256-0.328-0.624-0.672-0.934-0.878-0.12-0.080-0.166-0.126-0.262-0.27l-0.116-0.172-0.012-0.334c-0.072-1.818-0.652-3.016-1.926-3.972-0.18-0.134-0.558-0.382-0.722-0.476-0.058-0.032-0.106-0.062-0.106-0.068s0.090-0.036 0.2-0.068c0.374-0.106 0.586-0.236 0.72-0.436 0.044-0.068 0.096-0.174 0.116-0.236l0.032-0.114 0.142-0.046c0.204-0.066 0.466-0.206 0.594-0.32 0.136-0.122 0.214-0.242 0.294-0.45 0.058-0.148 0.070-0.164 0.158-0.212 0.266-0.148 0.504-0.388 0.622-0.626 0.066-0.134 0.122-0.34 0.122-0.452 0-0.062 0.016-0.082 0.122-0.166 0.144-0.116 0.278-0.292 0.342-0.45 0.038-0.094 0.046-0.152 0.046-0.344l0.002-0.23 0.096-0.146c0.244-0.372 0.334-0.69 0.272-0.958-0.020-0.082-0.016-0.090 0.076-0.232 0.208-0.318 0.234-0.582 0.096-0.976l-0.074-0.21 0.052-0.134c0.14-0.376 0.094-0.718-0.13-0.962-0.156-0.168-0.388-0.252-0.7-0.254h-0.192l-0.086-0.102c-0.224-0.258-0.574-0.378-1.104-0.38h-0.272l-0.034-0.058c-0.044-0.076-0.144-0.15-0.254-0.188-0.102-0.036-0.412-0.042-0.572-0.012-0.1 0.020-0.11 0.018-0.272-0.066-0.294-0.15-0.622-0.228-0.854-0.202-0.146 0.018-0.384 0.082-0.478 0.13l-0.076 0.038-0.092-0.066c-0.184-0.132-0.282-0.162-0.514-0.162h-0.21l-0.26 0.112-0.26 0.114-0.14-0.036c-0.288-0.076-0.522-0.044-0.756 0.106-0.24 0.154-0.256 0.158-0.564 0.162-0.236 0.002-0.296 0.010-0.388 0.046-0.164 0.066-0.298 0.164-0.514 0.374l-0.198 0.192h-0.176c-0.176 0-0.178 0-0.32 0.092-0.424 0.274-0.83 0.722-1.184 1.308-0.14 0.232-0.414 0.78-0.522 1.044-0.042 0.108-0.082 0.196-0.088 0.196s-0.050-0.11-0.098-0.246c-0.356-1.004-0.836-1.708-1.472-2.164-0.272-0.194-0.36-0.23-0.564-0.23h-0.176l-0.18-0.182c-0.198-0.2-0.352-0.314-0.514-0.382-0.090-0.038-0.146-0.044-0.39-0.048-0.312-0.004-0.278 0.008-0.596-0.176-0.088-0.052-0.192-0.102-0.23-0.112-0.11-0.030-0.336-0.022-0.492 0.018-0.128 0.032-0.148 0.034-0.2 0.006-0.232-0.122-0.528-0.204-0.732-0.204-0.116 0-0.142 0.010-0.332 0.118zM9.236 0.932c0.348 0.082 0.576 0.188 0.924 0.428 0.164 0.114 0.168 0.114 0.232-0.032 0.036-0.086 0.012-0.158-0.102-0.32-0.052-0.072-0.090-0.134-0.086-0.138s0.11 0.040 0.232 0.1c0.242 0.116 0.432 0.236 0.754 0.468l0.2 0.146 0.074-0.082c0.092-0.106 0.126-0.236 0.096-0.37-0.012-0.054-0.018-0.102-0.012-0.106 0.022-0.024 0.58 0.498 0.716 0.67 0.094 0.118 0.104 0.124 0.144 0.098 0.092-0.060 0.116-0.146 0.102-0.364l-0.014-0.2 0.054 0.050c0.138 0.126 0.648 0.688 0.768 0.844 0.072 0.098 0.144 0.176 0.156 0.176 0.054 0 0.090-0.1 0.102-0.284l0.014-0.186 0.158 0.18c0.72 0.82 1.182 1.772 1.226 2.53 0.040 0.688-0.264 1.21-0.916 1.578l-0.112 0.062-0.244-0.2c-1.442-1.182-3.342-2.196-5.446-2.91-0.242-0.082-0.45-0.15-0.464-0.15-0.012 0 0.204 0.12 0.48 0.268 1.888 1.006 3.252 1.878 4.258 2.72 0.306 0.256 0.91 0.848 0.91 0.892 0 0.018-0.022 0.1-0.050 0.18-0.322 0.946-1.24 1.548-2.64 1.732-0.278 0.036-1.034 0.050-1.18 0.020l-0.080-0.016 0.072-0.042c0.156-0.096 0.258-0.208 0.258-0.286 0-0.064-0.074-0.080-0.508-0.108-0.196-0.012-0.43-0.034-0.52-0.050-0.18-0.032-0.426-0.104-0.36-0.108 0.090-0.004 0.23-0.068 0.316-0.146 0.1-0.088 0.11-0.106 0.058-0.122-0.124-0.038-0.786-0.282-0.936-0.344-0.208-0.086-0.318-0.146-0.468-0.26l-0.11-0.080 0.15-0.014c0.142-0.014 0.41-0.086 0.428-0.116 0.004-0.008-0.12-0.080-0.276-0.16-0.474-0.244-1.080-0.61-1.122-0.678-0.006-0.010 0.072-0.020 0.184-0.026 0.196-0.008 0.354-0.056 0.354-0.11 0-0.012-0.092-0.092-0.204-0.18-0.11-0.086-0.318-0.25-0.462-0.366-0.142-0.116-0.284-0.23-0.316-0.254l-0.058-0.044h0.286c0.156-0.002 0.284-0.010 0.284-0.018 0-0.014-0.224-0.276-0.556-0.648-0.164-0.182-0.398-0.508-0.38-0.528 0.006-0.004 0.044 0.006 0.088 0.024 0.112 0.050 0.368 0.048 0.504-0.002 0.056-0.020 0.104-0.044 0.104-0.052 0-0.040-0.108-0.134-0.326-0.28-0.282-0.19-0.478-0.38-0.57-0.556l-0.066-0.122h0.606l-0.014-0.066c-0.038-0.17-0.19-0.522-0.368-0.85l-0.102-0.184h0.72c0.396 0 0.72-0.004 0.72-0.010s-0.076-0.112-0.168-0.236c-0.148-0.194-0.166-0.226-0.136-0.242 0.018-0.012 0.192-0.024 0.384-0.028 0.384-0.010 0.624 0.018 0.958 0.106 0.19 0.052 0.23 0.050 0.262-0.012 0.052-0.094 0.002-0.204-0.142-0.318-0.056-0.044-0.096-0.080-0.090-0.080 0.024 0 0.85 0.22 1.042 0.278 0.18 0.054 0.202 0.056 0.234 0.028 0.052-0.046 0.064-0.134 0.026-0.206-0.018-0.034-0.112-0.126-0.21-0.202-0.1-0.078-0.18-0.146-0.18-0.152 0-0.014 0.106 0.006 0.356 0.066zM21.428 0.884c-0.008 0.014-0.044 0.066-0.078 0.116-0.144 0.202-0.158 0.29-0.064 0.408l0.046 0.056 0.146-0.094c0.080-0.052 0.22-0.128 0.308-0.17 0.28-0.13 0.974-0.356 0.974-0.318 0 0.012-0.076 0.098-0.17 0.19-0.094 0.094-0.176 0.192-0.182 0.218-0.018 0.074-0.002 0.16 0.032 0.158 0.016-0.002 0.156-0.040 0.31-0.084 0.154-0.046 0.436-0.122 0.628-0.172l0.348-0.090-0.164 0.166c-0.088 0.092-0.162 0.178-0.162 0.19 0 0.028 0.090 0.122 0.116 0.122 0.010 0 0.108-0.026 0.216-0.058 0.392-0.116 0.538-0.146 0.758-0.156 0.182-0.010 0.25-0.004 0.388 0.032 0.092 0.022 0.174 0.046 0.18 0.052s-0.070 0.092-0.168 0.19l-0.18 0.18h0.726c0.398 0 0.724 0.006 0.724 0.012 0 0.008-0.062 0.1-0.138 0.206-0.212 0.294-0.314 0.47-0.38 0.656-0.034 0.092-0.062 0.182-0.062 0.198 0 0.022 0.050 0.028 0.29 0.028 0.222 0 0.29 0.006 0.29 0.026 0 0.056-0.15 0.332-0.252 0.466-0.060 0.080-0.192 0.214-0.294 0.3-0.294 0.252-0.316 0.286-0.214 0.338 0.118 0.062 0.336 0.054 0.596-0.022l0.048-0.014-0.040 0.078c-0.1 0.196-0.31 0.432-0.714 0.802l-0.218 0.202 0.068 0.042c0.084 0.050 0.23 0.056 0.372 0.012 0.054-0.016 0.106-0.030 0.116-0.030 0.034 0-0.076 0.104-0.478 0.45-0.22 0.19-0.434 0.38-0.476 0.424l-0.078 0.080 0.098 0.048c0.074 0.036 0.138 0.048 0.292 0.054 0.106 0.006 0.194 0.016 0.194 0.024 0 0.022-0.266 0.222-0.426 0.318-0.074 0.046-0.326 0.178-0.56 0.294-0.234 0.118-0.426 0.216-0.43 0.218-0.004 0.004 0.008 0.028 0.026 0.056 0.048 0.076 0.132 0.1 0.284 0.088l0.132-0.010-0.098 0.062c-0.234 0.146-0.84 0.396-1.172 0.484-0.076 0.020-0.136 0.042-0.136 0.050 0 0.030 0.166 0.164 0.248 0.202 0.044 0.020 0.11 0.038 0.142 0.040 0.054 0.002 0.048 0.008-0.064 0.062-0.178 0.084-0.44 0.132-0.876 0.156-0.742 0.042-0.832 0.12-0.458 0.394l0.132 0.096-0.188 0.006c-0.102 0.004-0.352-0.004-0.556-0.016-1.010-0.058-1.772-0.266-2.328-0.634-0.204-0.136-0.476-0.406-0.61-0.606-0.114-0.172-0.212-0.378-0.268-0.574l-0.030-0.102 0.372-0.368c0.566-0.556 1.082-0.962 1.954-1.546 0.862-0.578 1.988-1.236 3.144-1.84 0.102-0.054 0.182-0.1 0.178-0.104-0.016-0.016-1.348 0.508-1.952 0.77-1.666 0.722-2.988 1.49-4.020 2.34l-0.17 0.14-0.060-0.030c-0.154-0.080-0.356-0.236-0.496-0.386-0.166-0.178-0.304-0.42-0.366-0.65-0.050-0.184-0.060-0.588-0.018-0.834 0.058-0.364 0.248-0.864 0.484-1.272 0.182-0.318 0.484-0.714 0.756-0.994l0.176-0.18 0.026 0.12c0.026 0.12 0.094 0.322 0.112 0.34 0.012 0.014 0.21-0.204 0.598-0.66 0.16-0.188 0.306-0.352 0.324-0.368 0.032-0.024 0.032-0.014 0.022 0.152-0.012 0.154-0.008 0.188 0.028 0.256 0.022 0.044 0.058 0.096 0.080 0.116 0.038 0.036 0.042 0.034 0.13-0.090 0.102-0.142 0.26-0.312 0.396-0.422 0.094-0.076 0.412-0.274 0.44-0.274 0.008 0-0.004 0.034-0.024 0.074-0.044 0.088-0.050 0.226-0.010 0.302 0.016 0.030 0.064 0.090 0.11 0.132l0.080 0.078 0.236-0.168c0.422-0.298 0.546-0.374 0.806-0.49 0.174-0.078 0.166-0.076 0.148-0.044zM16.218 8.892c1.146 0.168 2.298 0.866 2.67 1.62 0.532 1.076-0.592 2.030-2.576 2.188-0.984 0.078-1.9-0.068-2.622-0.418-0.396-0.19-0.684-0.4-0.88-0.636-0.486-0.586-0.408-1.106 0.256-1.738 0.542-0.516 1.386-0.908 2.192-1.018 0.27-0.036 0.706-0.036 0.96 0.002zM11.3 9.52c0.336 0.036 0.502 0.064 0.532 0.094 0.162 0.164-0.48 0.982-1.542 1.966-1.088 1.006-2.128 1.8-2.776 2.12-0.384 0.19-0.584 0.22-0.674 0.106-0.036-0.046-0.040-0.080-0.040-0.376 0-0.954 0.274-1.796 0.808-2.48 0.17-0.216 0.522-0.55 0.752-0.714 0.226-0.16 0.614-0.364 0.888-0.466 0.318-0.118 0.806-0.226 1.162-0.256 0.18-0.016 0.712-0.012 0.89 0.006zM21.1 9.67c1.608 0.248 2.754 1.262 3.128 2.77 0.082 0.332 0.114 0.582 0.126 1 0.012 0.444 0.004 0.486-0.106 0.532-0.358 0.15-1.722-0.748-3.238-2.134-0.578-0.526-1.234-1.218-1.49-1.566-0.194-0.266-0.274-0.502-0.184-0.55 0.030-0.016 0.366-0.066 0.614-0.090 0.184-0.018 0.95 0.006 1.15 0.038zM19.71 12.78c0.706 0.082 1.386 0.38 1.964 0.866 0.89 0.748 1.486 1.99 1.538 3.214 0.042 0.942-0.272 1.832-0.856 2.42-0.378 0.38-0.786 0.584-1.366 0.684-0.322 0.054-0.87 0.044-1.198-0.022-0.872-0.178-1.698-0.668-2.262-1.342-0.508-0.612-0.824-1.238-0.96-1.91-0.326-1.61 0.392-3.17 1.712-3.718 0.43-0.178 0.944-0.246 1.428-0.192zM12.73 12.95c0.608 0.106 1.19 0.46 1.584 0.964 0.812 1.040 0.878 2.618 0.168 4.046-0.224 0.446-0.432 0.746-0.762 1.086-0.344 0.358-0.674 0.602-1.090 0.804-1.238 0.606-2.592 0.434-3.46-0.438-0.6-0.602-0.894-1.418-0.864-2.392 0.022-0.67 0.166-1.236 0.478-1.876 0.166-0.34 0.344-0.586 0.67-0.926 0.392-0.406 0.794-0.704 1.256-0.93 0.696-0.34 1.366-0.452 2.020-0.338zM24.958 14.98c0.858 0.504 1.444 1.278 1.68 2.21 0.106 0.428 0.14 1.018 0.084 1.45-0.084 0.642-0.298 1.236-0.62 1.722-0.156 0.238-0.46 0.57-0.556 0.61-0.43 0.18-0.912-0.528-1.242-1.822-0.204-0.8-0.308-1.604-0.31-2.4 0-0.818 0.112-1.352 0.35-1.654 0.158-0.2 0.396-0.246 0.614-0.116zM6.654 15.072c0.254 0.148 0.416 0.668 0.444 1.418 0.048 1.35-0.234 2.952-0.688 3.902-0.128 0.272-0.232 0.428-0.368 0.554-0.126 0.118-0.208 0.154-0.346 0.154h-0.106l-0.2-0.204c-0.476-0.486-0.79-1.132-0.934-1.916-0.052-0.28-0.062-0.986-0.020-1.25 0.096-0.58 0.32-1.14 0.64-1.59 0.248-0.352 0.726-0.796 1.11-1.032 0.126-0.078 0.156-0.088 0.262-0.088 0.092 0 0.138 0.012 0.206 0.052zM16.132 19.542c0.522 0.050 0.98 0.178 1.418 0.398 0.918 0.46 1.536 1.226 1.764 2.18 0.074 0.314 0.086 0.836 0.028 1.178-0.202 1.186-1.066 2.158-2.274 2.56-0.952 0.318-1.984 0.244-2.898-0.206-0.954-0.47-1.622-1.268-1.842-2.208-0.062-0.262-0.088-0.8-0.050-1.068 0.15-1.060 0.814-1.958 1.812-2.456 0.646-0.322 1.326-0.448 2.042-0.378zM24.090 20.62c0.198 0.028 0.45 0.154 0.534 0.266 0.080 0.108 0.24 0.442 0.304 0.636 0.282 0.844 0.328 1.858 0.12 2.686-0.138 0.552-0.34 0.958-0.728 1.456-0.19 0.246-0.72 0.768-0.952 0.94-0.684 0.506-1.364 0.756-2.068 0.758-0.15 0-0.308-0.004-0.35-0.012-0.624-0.1-0.972-0.346-1.118-0.79-0.070-0.214-0.092-0.372-0.092-0.688 0-0.656 0.188-1.368 0.56-2.122 0.322-0.652 0.654-1.096 1.34-1.796 0.64-0.654 1.232-1.072 1.772-1.252 0.27-0.090 0.454-0.112 0.678-0.082zM8.060 21.43c0.678 0.158 1.374 0.582 2.032 1.238 0.48 0.48 0.786 0.888 1.008 1.342 0.336 0.69 0.502 1.408 0.474 2.040-0.028 0.61-0.234 1.024-0.58 1.166-0.258 0.106-0.424 0.134-0.804 0.132-0.27 0-0.382-0.010-0.546-0.044-0.958-0.206-1.804-0.776-2.478-1.672-0.384-0.512-0.722-1.434-0.804-2.196-0.092-0.84 0.13-1.582 0.556-1.856 0.29-0.186 0.734-0.244 1.142-0.15zM16.99 27.31c1.28 0.168 2.268 0.672 2.27 1.16 0 0.44-1.136 1.376-2.176 1.788-0.242 0.096-0.558 0.188-0.802 0.234-0.238 0.044-0.866 0.060-1.114 0.028-0.844-0.104-1.768-0.56-2.432-1.198-0.522-0.5-0.6-0.786-0.298-1.080 0.52-0.506 1.928-0.906 3.412-0.97 0.308-0.014 0.902 0.006 1.14 0.038z"></path>
</svg>
