<!-- Generated by IcoMoon.io -->
<svg version="1.1" xmlns="http://www.w3.org/2000/svg" width="32" height="32" viewBox="0 0 32 32">
<title>tv1</title>
<path d="M1.536 3.271c-0.597 0.327-1.138 0.981-1.38 1.692-0.085 0.284-0.156 1.451-0.156 2.802v2.318l2.844 0.085v-4.338h26.311v20.338h-10.24v2.844h11.065l0.683-0.455c0.384-0.27 0.796-0.711 0.967-1.038 0.299-0.555 0.299-0.725 0.299-11.52s0-10.965-0.299-11.52c-0.171-0.327-0.583-0.768-0.967-1.038l-0.683-0.455h-13.966c-13.554 0.014-13.966 0.014-14.478 0.284z"></path>
<path d="M0 14.492v1.422l0.683 0.071c2.83 0.341 4.679 0.967 6.556 2.233 1.28 0.839 2.759 2.276 3.556 3.456 1.166 1.692 2.034 4.139 2.233 6.272l0.1 1.067h2.844l-0.085-1.237c-0.412-5.49-3.755-10.453-8.704-12.914-2.148-1.067-4.85-1.778-6.784-1.778h-0.398v1.408z"></path>
<path d="M0 20.324v1.422l0.683 0.085c2.446 0.341 4.466 1.65 5.646 3.684 0.455 0.768 0.924 2.318 0.924 3.029v0.469h2.844v-0.683c0-0.384-0.128-1.18-0.27-1.764-0.782-3.072-3.058-5.689-5.916-6.855-0.924-0.37-2.773-0.796-3.484-0.796h-0.427v1.408z"></path>
<path d="M0 26.866v2.148h4.366l-0.114-0.626c-0.356-1.934-1.735-3.271-3.669-3.584l-0.583-0.1v2.162z"></path>
</svg>
