<!-- Generated by IcoMoon.io -->
<svg version="1.1" xmlns="http://www.w3.org/2000/svg" width="32" height="32" viewBox="0 0 32 32">
<title>wc</title>
<path d="M24.6 0.6c-0.4 0.4-0.6 2.5-0.6 6.25v5.65l-2.1-0.050c-2.050-0.050-2.1-0.050-0.75-0.55 1.4-0.5 1.9-1.9 0.65-1.9-1.1 0-3.3-2-3.3-3.050 0-0.6-0.35-0.95-1-0.95s-1 0.35-1 1c0 1.2-1.85 3-3.1 3-1.4 0-1.050 1.35 0.5 1.9 1 0.4-0.25 0.55-5.3 0.55-3.65 0.050-7.1 0.3-7.65 0.55-1.15 0.65-1.3 3.4-0.25 3.8 0.4 0.15 0.9 0.9 1.050 1.7 0.7 3.050 3 5.85 6.35 7.45l3.15 1.5-2.8 0.050c-3.3 0-5.45 1.3-5.45 3.3v1.2h29v-1.15c0-1.6-0.55-2.2-2.65-3.1-1.6-0.65-1.85-1-1.85-2.45 0-1.4 0.25-1.8 1.5-2.3 2.85-1.2 3-1.8 3-12.25 0-6.75-0.2-9.75-0.6-10.15-0.35-0.35-1.85-0.6-3.4-0.6s-3.050 0.25-3.4 0.6zM30.5 12.4c0 8.15-0.15 8.65-3.1 9.35-1.3 0.35-1.4 0.55-1.4 2.85 0 3.1 0.6 4.25 2.5 4.65 4.15 0.9 1.15 1.25-11.050 1.25-10.15 0-13-0.15-12.55-0.6 0.3-0.3 1.95-0.7 3.65-0.8 2.25-0.15 3.15-0.45 3.6-1.15 0.35-0.55 1.1-0.95 1.75-0.95 1.7 0 4.65-1.35 6.25-2.9 1.5-1.4 3.35-4.6 3.35-5.75 0-0.4 0.45-1.1 1-1.6 0.9-0.8 1-1.55 1-6.35v-5.4h5v7.4zM21.75 18.6c-1.15 3.85-5.1 6.9-8.9 6.9-3.5 0-7.1-2.15-8.65-5.1-1.5-2.9-1.55-2.9 8.6-2.9h9.25l-0.3 1.1z"></path>
</svg>
